<?xml version="1.0" encoding="utf-8"?>
<!-- Generator: Adobe Illustrator 18.1.1, SVG Export Plug-In . SVG Version: 6.00 Build 0)  -->
<svg version="1.1" id="Layer_1" xmlns="http://www.w3.org/2000/svg" xmlns:xlink="http://www.w3.org/1999/xlink" x="0px" y="0px"
	 viewBox="0 0 136.6 122.5" enable-background="new 0 0 136.6 122.5" xml:space="preserve">
<g>
	<circle fill="#F7323F" cx="5" cy="5" r="5"/>
	<circle fill="#F7323F" cx="30.3" cy="5" r="5"/>
	<circle fill="#F7323F" cx="55.6" cy="5" r="5"/>
	<circle fill="#F7323F" cx="80.9" cy="5" r="5"/>
	<circle fill="#F7323F" cx="106.2" cy="5" r="5"/>
	<circle fill="#F7323F" cx="131.6" cy="5" r="5"/>
	<circle fill="#F7323F" cx="5" cy="27.5" r="5"/>
	<circle fill="#F7323F" cx="30.3" cy="27.5" r="5"/>
	<circle fill="#F7323F" cx="55.6" cy="27.5" r="5"/>
	<circle fill="#F7323F" cx="80.9" cy="27.5" r="5"/>
	<circle fill="#F7323F" cx="106.2" cy="27.5" r="5"/>
	<circle fill="#F7323F" cx="131.6" cy="27.5" r="5"/>
	<circle fill="#F7323F" cx="5" cy="50" r="5"/>
	<circle fill="#F7323F" cx="30.3" cy="50" r="5"/>
	<circle fill="#F7323F" cx="55.6" cy="50" r="5"/>
	<circle fill="#F7323F" cx="80.9" cy="50" r="5"/>
	<circle fill="#F7323F" cx="106.2" cy="50" r="5"/>
	<circle fill="#F7323F" cx="131.6" cy="50" r="5"/>
	<circle fill="#F7323F" cx="5" cy="72.5" r="5"/>
	<circle fill="#F7323F" cx="30.3" cy="72.5" r="5"/>
	<circle fill="#F7323F" cx="55.6" cy="72.5" r="5"/>
	<circle fill="#F7323F" cx="80.9" cy="72.5" r="5"/>
	<circle fill="#F7323F" cx="106.2" cy="72.5" r="5"/>
	<circle fill="#F7323F" cx="131.6" cy="72.5" r="5"/>
	<circle fill="#F7323F" cx="5" cy="95" r="5"/>
	<circle fill="#F7323F" cx="30.3" cy="95" r="5"/>
	<circle fill="#F7323F" cx="55.6" cy="95" r="5"/>
	<circle fill="#F7323F" cx="80.9" cy="95" r="5"/>
	<circle fill="#F7323F" cx="106.2" cy="95" r="5"/>
	<circle fill="#F7323F" cx="131.6" cy="95" r="5"/>
	<circle fill="#F7323F" cx="5" cy="117.5" r="5"/>
	<circle fill="#F7323F" cx="30.3" cy="117.5" r="5"/>
	<circle fill="#F7323F" cx="55.6" cy="117.5" r="5"/>
</g>
</svg>
