<?xml version="1.0" encoding="utf-8"?>
<!-- Generator: Adobe Illustrator 18.1.1, SVG Export Plug-In . SVG Version: 6.00 Build 0)  -->
<svg version="1.1" id="Layer_1" xmlns="http://www.w3.org/2000/svg" xmlns:xlink="http://www.w3.org/1999/xlink" x="0px" y="0px"
	 viewBox="0 0 95.8 99.7" enable-background="new 0 0 95.8 99.7" xml:space="preserve">
<g>
	<defs>
		<path id="SVGID_1_" d="M1.5,64.4l6.1-12.3c1.6-3.3,1.9-7,0.9-10.5l-2.7-9C4.4,27.5,5.9,22,9.6,18.2L23.9,4.1
			C26.6,1.5,30.3,0,34.1,0h25.3c4.7,0,9.1,2.3,11.8,6.1l22.1,31.4c5.1,7.2,2.5,17.2-5.4,21.2L83,61.1c-6.8,3.4-9.8,11.5-6.8,18.5
			l0,0c4.4,10.4-4.2,21.5-15.4,19.9l-23.4-3.5c-10.8-1.6-21.1-5.9-29.8-12.4l-1.7-1.3C0.2,78.2-1.6,70.6,1.5,64.4z"/>
	</defs>
	<clipPath id="SVGID_2_">
		<use xlink:href="#SVGID_1_"  overflow="visible"/>
	</clipPath>
	
		<path clip-path="url(#SVGID_2_)" fill="none" stroke="#F7323F" stroke-width="3" stroke-linecap="round" stroke-linejoin="round" stroke-miterlimit="10" d="
		M102.1-70l-175,175 M-58.6,105l175-175 M130.7-70l-175,175 M-29.9,105l175-175 M-15.6,105l175-175 M173.7-70l-175,175 M13.1,105
		l175-175 M27.4,105l175-175 M216.7-70l-175,175 M230.7-70l-175,175"/>
</g>
</svg>
