<?xml version="1.0" encoding="utf-8"?>
<!-- Generator: Adobe Illustrator 18.1.1, SVG Export Plug-In . SVG Version: 6.00 Build 0)  -->
<svg version="1.1" id="Layer_1" xmlns="http://www.w3.org/2000/svg" xmlns:xlink="http://www.w3.org/1999/xlink" x="0px" y="0px"
	 viewBox="0 0 200 200" enable-background="new 0 0 200 200" xml:space="preserve">
<path id="twitter-icon" fill="#EF434D" d="M180.4,50.1c-5.9,2.6-12.3,4.4-18.9,5.2c6.8-4.1,12.1-10.5,14.5-18.3
	c-6.4,3.8-13.4,6.5-21,8c-6-6.4-14.6-10.4-24.1-10.4c-21.3,0-37,19.9-32.1,40.5c-27.4-1.4-51.8-14.5-68-34.5
	C22.1,55.5,26.3,74.9,41,84.8c-5.5-0.2-10.5-1.6-15-4.1c-0.4,15.3,10.6,29.6,26.5,32.8c-4.6,1.3-9.7,1.6-14.9,0.5
	c4.2,13.1,16.4,22.7,30.9,22.9c-13.9,10.9-31.4,15.7-48.9,13.7c14.6,9.4,32,14.8,50.6,14.8c61.3,0,95.9-51.8,93.9-98.2
	C170.4,62.5,176,56.8,180.4,50.1z"/>
</svg>
