<?xml version="1.0" encoding="utf-8"?>
<!-- Generator: Adobe Illustrator 18.1.1, SVG Export Plug-In . SVG Version: 6.00 Build 0)  -->
<svg version="1.1" id="Layer_1" xmlns="http://www.w3.org/2000/svg" xmlns:xlink="http://www.w3.org/1999/xlink" x="0px" y="0px"
	 viewBox="0 0 265.4 63.7" enable-background="new 0 0 265.4 63.7" xml:space="preserve">
<g>
	
		<polygon fill="none" stroke="#F7323F" stroke-width="4" stroke-linecap="round" stroke-linejoin="round" stroke-miterlimit="10" points="
		33.4,2 43.1,21.7 64.8,24.8 49.1,40.1 52.8,61.7 33.4,51.5 14,61.7 17.7,40.1 2,24.8 23.7,21.7 	"/>
	
		<polygon fill="none" stroke="#F7323F" stroke-width="4" stroke-linecap="round" stroke-linejoin="round" stroke-miterlimit="10" points="
		132.7,2 142.4,21.7 164.1,24.8 148.4,40.1 152.1,61.7 132.7,51.5 113.3,61.7 117,40.1 101.3,24.8 123,21.7 	"/>
	
		<polygon fill="none" stroke="#F7323F" stroke-width="4" stroke-linecap="round" stroke-linejoin="round" stroke-miterlimit="10" points="
		232,2 241.7,21.7 263.4,24.8 247.7,40.1 251.4,61.7 232,51.5 212.6,61.7 216.3,40.1 200.6,24.8 222.3,21.7 	"/>
</g>
</svg>
