<?xml version="1.0" encoding="utf-8"?>
<!-- Generator: Adobe Illustrator 18.1.1, SVG Export Plug-In . SVG Version: 6.00 Build 0)  -->
<svg version="1.1" id="Layer_1" xmlns="http://www.w3.org/2000/svg" xmlns:xlink="http://www.w3.org/1999/xlink" x="0px" y="0px"
	 viewBox="0 0 344 336.5" enable-background="new 0 0 344 336.5" xml:space="preserve">
<path fill="#FFFFFF" d="M339.6,160.9c-11.1-8.9-23.7-13.4-37.9-13.3c-23.8,0-47.5-0.1-71.3,0.1c-4.2,0-6.8-1.3-9.4-4.6
	C184.5,96.4,147.9,49.8,111.2,3.3c-1-1.3-2.6-3.1-4-3.1C96.2-0.1,85.2,0,73.6,0c18.8,49.4,37.4,98.2,56.2,147.5
	c-15.8,0-30.8-0.2-45.7,0.1c-7,0.1-14,1.2-20.9,1.8c-1,0-1.8-1.3-2.7-2.5c-10.2-15.2-20.3-30.5-30.5-45.7c-0.8-1.3-2.4-2.9-3.6-2.9
	C17.7,98.1,9,98.2,0,98.2c0.7,1.9,1.1,3.4,1.7,4.7c8.2,20.6,16.6,41.2,24.6,61.8c0.4,1,0.6,2.2,0.7,3.5c0,1.2-0.3,2.5-0.7,3.5
	C18.2,192.4,9.9,213,1.7,233.6c-0.6,1.4-1,2.8-1.7,4.7c9,0,17.7,0.1,26.3-0.1c1.2,0,2.8-1.7,3.6-2.9c10.2-15.2,20.3-30.4,30.5-45.7
	c0.8-1.3,1.7-2.5,2.7-2.5c7,0.6,14,1.7,20.9,1.8c15,0.3,29.9,0.1,45.7,0.1c-18.8,49.3-37.4,98.2-56.2,147.5
	c11.6,0,22.6,0.1,33.6-0.1c1.4,0,3-1.8,4-3.1c36.7-46.6,73.3-93.1,109.8-139.8c2.6-3.3,5.1-4.6,9.4-4.6c23.8,0.2,47.5,0.1,71.3,0.1
	c14.2,0,26.9-4.5,37.9-13.3c2.8-2.3,4.3-4.8,4.4-7.4C343.9,165.7,342.5,163.2,339.6,160.9z"/>
</svg>
