<?xml version="1.0" encoding="utf-8"?>
<!-- Generator: Adobe Illustrator 18.1.1, SVG Export Plug-In . SVG Version: 6.00 Build 0)  -->
<svg version="1.1" id="Layer_1" xmlns="http://www.w3.org/2000/svg" xmlns:xlink="http://www.w3.org/1999/xlink" x="0px" y="0px"
	 viewBox="-164 42.3 512 512" enable-background="new -164 42.3 512 512" xml:space="preserve">
<path id="instagram-6-icon" fill="#EF434D" d="M250.5,266.6h-35.9c2.6,10.1,4.2,20.7,4.2,31.7C218.8,368.3,162,425,92,425
	S-34.8,368.3-34.8,298.3c0-11,1.5-21.6,4.2-31.7h-35.9v174.3c0,8.7,7.1,15.8,15.9,15.8h285.2c8.8,0,15.9-7.1,15.9-15.8L250.5,266.6
	L250.5,266.6z M250.5,155.7c0-8.8-7.1-15.8-15.9-15.8h-47.5c-8.8,0-15.8,7.1-15.8,15.8v47.5c0,8.7,7.1,15.8,15.8,15.8h47.5
	c8.8,0,15.9-7.1,15.9-15.8V155.7z M92,219c-43.8,0-79.2,35.5-79.2,79.2c0,43.8,35.5,79.2,79.2,79.2c43.8,0,79.2-35.5,79.2-79.2
	C171.2,254.5,135.8,219,92,219 M250.5,504.3H-66.5c-26.2,0-47.5-21.3-47.5-47.6V139.8c0-26.3,21.3-47.5,47.5-47.5h316.9
	c26.2,0,47.5,21.3,47.5,47.5v316.9C298,483,276.7,504.3,250.5,504.3"/>
</svg>
