<?xml version="1.0" encoding="utf-8"?>
<!-- Generator: Adobe Illustrator 18.1.1, SVG Export Plug-In . SVG Version: 6.00 Build 0)  -->
<svg version="1.1" id="Layer_1" xmlns="http://www.w3.org/2000/svg" xmlns:xlink="http://www.w3.org/1999/xlink" x="0px" y="0px"
	 viewBox="0 0 200 158.4" enable-background="new 0 0 200 158.4" xml:space="preserve">
<g>
	<path fill="#FFFFFF" d="M57.1,118.8c1.1-2.4,1.7-3.7,1.7-4.5c0-0.6-0.4-0.9-0.7-0.9c-1.3,0-2.2,1.9-3.2,5.4c0,0-1.5,0-1.7,0
		c-0.2,0.2-1.1,1.9,0,1.9h0.9l-0.6,1.3l0,0l-0.6,1.5c-0.7,0.9-2.8,3-3.7,3.7l0,0c-1.7,1.3-2.8,2.1-3.2,2.1c0,0-0.2,0-0.2-0.2
		s0-0.2,0.2-0.4l2.8-6.3l-2.8,0.2l-0.6,1.3c-2.1,2.2-6.2,5.4-6.7,5.4c0,0-0.2,0-0.2-0.2c0-0.6,2.1-4.7,2.1-4.7
		c0.2-0.4,0.4-0.9,0.4-1.3c0-0.6-0.4-0.9-1.3-0.9c-0.7,0-0.9,0.2-2.1,0.9l-3.7,3.2l0.9-2.2c0.2-0.4,0.2-0.7,0.2-0.9
		c0-0.6-0.4-0.9-1.3-0.9c-0.7,0-0.9,0.2-2.1,1.1l-3.5,3l1.7-3.7l-2.4,0.2l-0.7,1.5c-0.7,0.9-3.2,3.2-3.5,3.5
		c0.2,1.1,0.9,1.3,1.5,0.9l-0.4,1.1c-0.4,0.7-0.4,0.9-0.4,1.3c0,0.6,0.4,0.9,0.9,0.9c0.4,0,0.6,0,1.7-1.1l5.4-5.2l-1.7,3.9
		c-0.4,0.6-0.6,1.3-0.6,1.7c0,0.6,0.2,0.7,0.7,0.7c0.4,0,0.6-0.2,1.7-1.1l5.4-5.2l-1.5,3.7c-0.4,0.7-0.4,0.9-0.4,1.3
		c0,0.7,0.6,1.3,1.3,1.3c1.1,0,2.4-0.7,4.9-2.2c0.2-0.2,0.9-0.7,1.7-1.1l-0.2,0.6c-0.2,0.6-0.4,1.3-0.4,1.7c0,0.7,0.6,1.1,1.3,1.1
		c1.3,0,3.4-1.1,5.2-2.6l0,0c0.7-0.6,0.9-0.7,1.9-1.3l-0.6,1.7c-0.2,0.4-0.2,0.9-0.2,1.3c0,0.7,0.4,1.1,1.3,1.1
		c2.2,0,4.1-1.5,5.2-2.2c1.3-0.9,0-2.2-0.2-2.2c-2.6,1.9-3.2,2.1-3.4,2.1s-0.2,0-0.2-0.2c0,0,0-0.2,0.2-0.4l3.4-8h1.9
		c1.3,0,0.9-2.1,0.9-2.1L57.1,118.8"/>
	<path fill="#FFFFFF" d="M46.7,119.1c0,0.9,0.6,1.5,1.3,1.5c0.9,0,1.7-0.7,1.7-1.9c0-0.7-0.6-1.3-1.3-1.3
		C47.4,117.5,46.7,118.2,46.7,119.1"/>
	<path fill="#FFFFFF" d="M134.8,119.1c0,0.9,0.6,1.5,1.3,1.5c0.9,0,1.7-0.7,1.7-1.9c0-0.7-0.6-1.3-1.3-1.3
		C135.6,117.5,134.8,118.2,134.8,119.1"/>
	<path fill="#FFFFFF" d="M130.5,119.1c0,0.9,0.6,1.5,1.3,1.5c0.9,0,1.7-0.7,1.7-1.9c0-0.7-0.6-1.3-1.3-1.3
		C131.3,117.5,130.5,118.2,130.5,119.1"/>
	<path fill="#FFFFFF" d="M172.7,127.4c-1.9,1.3-2.2,1.7-2.8,1.7c-0.2,0-0.2,0-0.2-0.2c0,0,0,0,0.2-0.6l1.9-4.3
		c0.4-0.9,0.4-0.9,0.4-1.3c0-0.6-0.6-0.9-1.1-0.9c-0.6,0-1.3,0.4-2.2,0.9l-4.5,3.2l1.9-3.9l-2.4,0.2l-0.7,1.5c-1.1,1.5-5.8,6-8.8,6
		c-0.7,0-1.1-0.4-1.3-1.1c1.7-0.4,2.8-0.6,3.7-1.1c1.7-0.9,2.6-2.2,2.6-3.5c0-1.1-0.9-2.1-2.4-2.1c-1.7,0-3.5,0.7-4.9,1.9
		c-0.9,0.7-1.7,2.1-1.9,3.2c-1.3,0.6-2.4,1.3-3.5,2.4l1.7-4.5c0,0-2.1-0.9-2.8,0.7c-0.7,1.7-2.8,3.5-3.9,3.5c-0.6,0-0.9-0.6-0.9-1.5
		c0-2.4,2.4-4.3,5.8-4.3c0.6,0,1.1,0,2.1,0.2l-0.2-2.1c-0.6,0-0.9-0.2-1.5-0.2c-3.7,0-5.8,0.7-7.5,2.8c-0.6,0.7-0.9,1.5-1.1,2.4
		c-1.5,1.1-3,2.1-3.4,2.1c0,0-0.2,0-0.2-0.2c0,0,0-0.2,0.2-0.4l2.8-6.3l-2.2,0.2c-1.9,2.1-2.4,2.4-5.2,4.9c-0.6,0.6-1.1,0.9-1.9,1.5
		l2.8-6.3l-2.2,0.6l-0.7,1.7c-0.4,0.6-1.7,2.1-3.2,3.2l0,0c-2.1,1.7-2.6,1.9-3.2,1.9c-0.2,0-0.2,0-0.2-0.2c0,0,0,0,0.2-0.6l1.9-4.3
		c0.4-0.9,0.4-0.9,0.4-1.3c0-0.6-0.6-0.9-1.1-0.9c-0.6,0-1.3,0.4-2.2,0.9l-4.5,3.2l1.9-3.9l-2.4,0.2l-0.7,1.5
		c-1.5,2.2-5.6,4.9-6.3,5.4c0,0-0.2,0-0.4,0.2l1.7-4.5c0,0-2.1-0.9-2.8,0.7c-0.7,1.7-2.8,3.5-3.9,3.5c-0.6,0-0.9-0.6-0.9-1.5
		c0-2.4,2.4-4.3,5.8-4.3c0.6,0,1.1,0,2.1,0.2l-0.2-2.1c-0.6,0-0.9-0.2-1.5-0.2c-3.7,0-5.8,0.7-7.5,2.8c-0.6,0.7-0.9,1.5-1.1,2.2
		c-1.7,1.3-3,2.2-3.4,2.2c-0.2,0-0.2,0-0.2-0.2c0,0,0-0.2,0.2-0.4l1.7-3.5c0.4-0.7,0.4-1.1,0.4-1.5c0-0.9-0.6-1.3-1.9-1.3h-1.3
		c0-0.2,0-0.4,0-0.4c0-0.7-0.6-1.3-1.3-1.3c-0.9,0-1.5,0.6-1.5,1.7c0,0.4,0,0.7,0.4,1.1c-0.7,1.3-2.2,3.2-3.4,3.9l0,0
		c-2.8,2.1-3.9,2.6-5.4,2.6c-0.7,0-1.1-0.4-1.3-1.1c1.7-0.4,2.8-0.6,3.7-1.1c1.7-0.9,2.6-2.2,2.6-3.5c0-1.1-0.9-2.1-2.4-2.1
		c-1.7,0-3.5,0.7-4.9,1.9c-0.9,0.9-1.7,1.9-1.9,3.2c-0.6,0-1.3,0-1.7,0c-0.4,0.7-0.4,2.1,0.7,2.1c0.2,0,0.6,0,0.7,0
		c0.4,1.7,1.5,2.8,3.2,2.8c2.1,0,3.9-0.7,6.3-2.6l0,0c1.7-1.3,4.1-3.7,5-5.2h0.7c0.2,0,0.4,0,0.4,0.2c0,0,0,0.2-0.2,0.4l-2.1,3.9
		c-0.4,0.7-0.6,1.3-0.6,1.9c0,0.7,0.6,1.3,1.5,1.3c1.3,0,2.8-0.7,5.2-2.6c0.4,1.7,1.3,2.6,3,2.6c0.7,0,1.3-0.2,2.1-0.7l-0.4,0.9
		c-2.2,2.8-3.4,4.5-3.4,6c0,0.7,0.4,1.3,1.3,1.3s1.7-0.7,2.4-2.6l1.3-3c2.2-2.6,5.4-4.5,6.5-5.4l-0.2,2.2c-0.2,0.6-0.4,0.9-0.4,1.3
		c0,0.6,0.4,0.9,0.7,0.9c0.4,0,0.6,0,1.5-0.9l6.2-5.2l-1.7,3.7c-0.2,0.4-0.4,0.9-0.4,1.3c0,0.7,0.6,1.1,1.3,1.1
		c1.3,0,2.2-0.4,5.2-2.6l0,0c0.4-0.2,0.6-0.4,0.9-0.6l-0.6,1.3c-0.2,0.4-0.2,0.7-0.2,0.9c0,0.6,0.6,0.9,1.1,0.9
		c0.7,0,1.5-0.4,2.2-0.9l4.3-3.4l-0.6,1.7c-0.2,0.6-0.4,1.1-0.4,1.5c0,0.7,0.4,1.1,1.1,1.1c1.1,0,2.6-0.7,5.2-2.6
		c0.4,1.7,1.3,2.6,3,2.6c0.7,0,1.3-0.2,2.1-0.7l-0.4,0.9c-2.2,2.8-3.4,4.5-3.4,6c0,0.7,0.4,1.3,1.3,1.3c0.9,0,1.7-0.7,2.4-2.6l1.3-3
		c1.9-1.9,3.7-3.9,5.6-4.7c0.4,1.7,1.5,2.6,3.2,2.6c3.7,0,6.9-3,7.5-3.4l-0.6,1.3c-0.2,0.6-0.4,0.9-0.4,1.3c0,0.6,0.4,0.9,0.7,0.9
		s0.6,0,1.5-0.9l6.2-5.2l-1.7,3.7c-0.2,0.4-0.4,0.9-0.4,1.3c0,0.7,0.6,1.1,1.3,1.1c1.1,0,2.4-0.6,4.9-2.4
		C174.2,128.5,172.9,127.2,172.7,127.4 M156.3,124c0.4,0,0.6,0.2,0.6,0.6c0,0.9-1.9,2.1-3.7,2.2C153.7,125.1,155,124,156.3,124z
		 M86.1,124c0.4,0,0.6,0.2,0.6,0.6c0,0.9-1.9,2.1-3.7,2.2C83.5,125.1,84.8,124,86.1,124z"/>
	<path fill="#FFFFFF" d="M79,124.9c2.4-3.9,3.9-8.2,4.1-12c0,0-2.4,0.4-2.8,2.1c-1.3,5.2-4.5,10.8-7.7,13.3
		c-1.1,0.7-1.7,1.1-2.2,1.1c-0.6,0-0.9-0.4-0.9-0.9c0-0.7,0.4-1.7,1.1-3.4l3-6.3c0.6-1.3,1.1-3.2,1.1-3.9s-0.4-1.5-0.9-1.9
		c-0.4-0.4-1.1-0.6-2.1-0.6c-2.4,0-4.3,1.3-5.8,3.9c-1.3,2.2-1.7,3.9-1.9,5c0.4,0.4,2.2,0.4,2.8-0.9c0.4-1.1,1.1-2.6,1.9-3.7
		c0.7-1.3,1.7-2.1,2.4-2.1c0.4,0,0.7,0.2,0.7,0.7c0,0.4-0.2,0.7-0.7,2.1l-3.2,6.9c-0.7,1.9-1.3,3.4-1.3,4.5c0,1.9,1.3,3,3.4,3
		C73,131.8,76.2,129.4,79,124.9"/>
	<path fill="#FFFFFF" d="M85.5,145.1c0-0.7-0.6-1.3-1.3-1.3c-0.9,0-1.7,0.7-1.7,1.7c0,0.9,0.6,1.5,1.3,1.5
		C84.8,147,85.5,146.2,85.5,145.1"/>
	<path fill="#FFFFFF" d="M89.8,145.1c0-0.7-0.6-1.3-1.3-1.3c-0.9,0-1.7,0.7-1.7,1.7c0,0.9,0.6,1.5,1.3,1.5
		C89.1,147,89.8,146.2,89.8,145.1"/>
	<path fill="#FFFFFF" d="M130,153.7c-1.9,1.3-2.2,1.7-2.8,1.7c-0.2,0-0.2,0-0.2-0.2c0,0,0,0,0.2-0.6l1.9-4.3
		c0.4-0.9,0.4-0.9,0.4-1.3c0-0.6-0.6-0.9-1.1-0.9s-1.3,0.4-2.2,0.9l-4.5,3.2l1.9-3.9l-2.4,0.2l-0.7,1.5c-1.1,1.5-5.8,6-8.8,6
		c-0.7,0-1.1-0.4-1.3-1.1c1.7-0.4,2.8-0.6,3.7-1.1c1.7-0.9,2.6-2.2,2.6-3.5c0-1.1-0.9-2.1-2.4-2.1c-1.7,0-3.5,0.7-4.9,1.9
		c-0.9,0.7-1.7,2.1-1.9,3.2c-0.9,0.6-3.2,2.4-3.9,2.4c-0.2,0-0.2,0-0.2-0.2c0,0,0-0.2,0.2-0.4l3.4-8h1.9c1.3,0,1.1-2.1,1.1-2.1h-2.2
		c1.1-2.4,1.7-3.7,1.7-4.5c0-0.6-0.4-0.9-0.7-0.9c-1.3,0-2.2,1.9-3.2,5.4c0,0-1.5,0-1.7,0c-0.2,0.2-1.1,1.9,0,1.9h0.9l-1.1,2.6
		c-0.7,0.9-4.9,5-6.9,5.8c0.7-1.3,0.9-2.6,0.9-4.7c0-0.7,0-1.1-0.2-2.4c0.6-0.6,0.7-1.1,0.7-1.9c0-0.7-0.4-1.3-1.1-1.3
		c-0.4,0-0.9,0.2-1.3,0.7s-0.4,0.9-0.6,2.2c-1.5,1.9-2.6,3.2-4.7,5c0,0-0.9,0.7-1.7,0.7c-0.2,0-0.2,0-0.4,0c0.2-0.4,0.2-0.6,0.2-0.9
		c0-0.4,0-0.6-0.2-0.9c0.6-0.7,0.7-0.9,0.7-1.5c0-1.5-1.5-2.8-3.2-2.8c-2.2,0-4.3,1.5-5.2,3.7c-0.2,0.6-0.4,0.9-0.6,1.7
		c-1.7,1.3-3,2.2-3.4,2.2c-0.2,0-0.2,0-0.2-0.2c0,0,0-0.2,0.2-0.4l1.7-3.5c0.4-0.7,0.4-1.1,0.4-1.5c0-0.9-0.6-1.3-1.9-1.3h-1.3
		c0-0.2,0-0.4,0-0.4c0-0.7-0.6-1.3-1.3-1.3c-0.9,0-1.5,0.6-1.5,1.7c0,0.4,0,0.7,0.4,1.1c-0.7,1.3-4.3,4.9-4.5,4.9
		c0,0.4,0.7,1.7,2.2,0.7c1.5-1.1,3.4-3.4,4.1-4.7h0.7c0.2,0,0.4,0,0.4,0.2c0,0,0,0.2-0.2,0.4l-2.1,3.9c-0.4,0.7-0.6,1.3-0.6,1.9
		c0,0.7,0.6,1.3,1.5,1.3c1.5,0,2.8-0.7,5.2-2.6l0,0c0.4,1.9,1.3,2.6,3.2,2.6c1.7,0,3.2-0.7,4.1-2.2c0.6,0.2,0.9,0.2,1.1,0.2
		c1.1,0,1.9-0.6,1.9-0.6c1.5-1.1,2.4-1.9,4.3-3.9c0,0.2,0,0.2,0,0.4c0,1.5-0.6,3.4-1.1,4.1c-0.6,0-0.7,0-0.9,0s-0.6,0-0.7,0
		s-0.4,0-0.4,0c-0.4,0-0.6,0.2-0.6,0.6c0,0.9,0.9,1.7,2.1,1.7c0.6,0,0.9-0.2,1.3-0.4c0.4,0,0.6,0,0.6,0c2.6,0,5.6-3,6.7-3.5
		l-0.7,1.7c-0.4,0.7-0.6,2.4,1.5,2.4c1.7,0,4.3-2.1,5.2-2.6c0.4,1.7,1.5,2.6,3.2,2.6c3.7,0,6.9-3,7.5-3.4l-0.6,1.3
		c-0.2,0.6-0.4,0.9-0.4,1.3c0,0.6,0.4,0.9,0.7,0.9c0.4,0,0.6,0,1.5-0.9l6.2-5.2l-1.7,3.7c-0.2,0.4-0.4,0.9-0.4,1.3
		c0,0.7,0.6,1.1,1.3,1.1c1.1,0,2.4-0.6,4.9-2.4C131.5,154.8,130.2,153.5,130,153.7 M113.4,150.3c0.4,0,0.6,0.2,0.6,0.6
		c0,0.9-1.9,2.1-3.7,2.2C110.9,151.4,112.2,150.3,113.4,150.3z M86.5,151.6c-0.9,0.6-1.3,1.3-1.3,2.2c0,0.4,0.2,0.7,0.4,1.1
		c-0.4,0.2-0.4,0.4-0.6,0.6c-0.4,0.4-0.6,0.6-1.1,0.6c-0.9,0-1.3-0.6-1.3-1.5c0-2.1,1.5-4.1,3-4.1c0.4,0,0.9,0.4,0.9,0.9
		C86.5,151.3,86.5,151.4,86.5,151.6z"/>
	<path fill="#FFFFFF" d="M186.2,64.1v4.7h9v3.7c-1.9,1.3-4.5,2.1-8,2.1c-7.7,0-12.3-5.2-12.3-12.3c0-7.1,4.7-12.3,11.6-12.3
		c4.9,0,7.1,1.7,9.2,3.9l3.5-3.4c-2.8-3.2-6.5-5.2-12.7-5.2c-9.5,0-17.2,7.3-17.2,17.2s7.7,17.2,17.9,17.2c6.3,0,10.1-2.1,12.9-4.3
		v-11L186.2,64.1"/>
	<polyline fill="#FFFFFF" points="119.5,57 140.8,79.4 141.4,79.4 141.4,45.6 136.3,45.6 136.3,67.4 115,45 114.7,45 114.7,78.8 
		119.5,78.8 119.5,57 	"/>
	<rect x="153.5" y="45.6" fill="#FFFFFF" width="5.2" height="33.4"/>
	<polyline fill="#FFFFFF" points="26.5,78.8 26.5,45.6 21.3,45.6 21.3,64.1 5.2,64.1 5.2,45.6 0,45.6 0,78.8 5.2,78.8 5.2,68.7 
		21.3,68.7 21.3,78.8 26.5,78.8 	"/>
	<path fill="#FFFFFF" d="M53.8,79.4c9.5,0,17.2-7.3,17.2-17.2S63.3,45,53.8,45s-17.2,7.3-17.2,17.2C36.6,72.1,44.3,79.4,53.8,79.4
		 M53.8,49.9c6.9,0,11.8,5.2,11.8,12.3s-4.9,12.3-11.8,12.3S42,69.3,42,62.2S46.9,49.9,53.8,49.9z"/>
	<path fill="#FFFFFF" d="M86.3,71h3.4c0.7,0,1.7,0,2.4-0.2l5.6,8h6.2l-6.7-9.3c4.3-2.1,6.7-6,6.7-11.2c0-7.7-5-12.7-14.2-12.7H81V79
		h5.2V71 M86.3,50.2h3.2c6.3,0,9,3,9,8c0,5-2.6,8.2-9,8.2h-3.2V50.2z"/>
	<path fill="#FFFFFF" d="M95.1,22.6c3.7,0,6.3-2.1,6.3-6.5V0h-3.5v15.9c0,2.6-1.1,3.4-3,3.4c-1.9,0-2.6-0.9-3.4-2.4l-2.8,1.7
		C89.8,20.7,91.7,22.6,95.1,22.6"/>
	<path fill="#FFFFFF" d="M109.8,22.4c1.1,0,2.2-0.9,2.2-2.2c0-1.3-1.1-2.2-2.2-2.2c-1.1,0-2.2,0.9-2.2,2.2
		C107.6,21.5,108.7,22.4,109.8,22.4"/>
</g>
</svg>
