<?xml version="1.0" encoding="utf-8"?>
<!-- Generator: Adobe Illustrator 18.1.1, SVG Export Plug-In . SVG Version: 6.00 Build 0)  -->
<svg version="1.1" id="Layer_1" xmlns="http://www.w3.org/2000/svg" xmlns:xlink="http://www.w3.org/1999/xlink" x="0px" y="0px"
	 viewBox="150 -150 465.2 431.2" enable-background="new 150 -150 465.2 431.2" xml:space="preserve">
<path fill="#FFFFFF" d="M587.7,149.8c21.1,0,27.5-10.1,27.5-22.3c0-14.1-12.3-18.7-22-20.9c-9.1-2-13.4-2.5-13.4-6.3
	c0-2.7,2.4-3.9,7.2-3.9c5,0,9.7,2.4,12.9,5l11.3-12.1C605.8,83.6,598,80,587,80c-14.3,0-25.9,6.1-25.9,21.2c0,14,10.2,19,19.3,21.4
	c10.8,2.8,15.1,2.8,15.1,6.4c0,2.8-2.2,4.1-9.1,4.1c-6.3,0-12.1-2.7-16.7-7.1l-12.4,11C563.1,144,572.2,149.8,587.7,149.8
	L587.7,149.8z"/>
<polygon fill="#FFFFFF" points="161.3,274.6 202,274.6 202,214.9 270.7,214.9 270.7,274.6 311.5,274.6 311.5,86.6 270.7,86.6 
	270.7,178.8 202,178.8 202,86.6 161.3,86.6 "/>
<path fill="#FFFFFF" d="M439.1,51.3c56.5,0,101.5-42.7,101.5-100.7S495.6-150,439.1-150c-56.5,0-101.5,42.7-101.5,100.7
	S382.5,51.3,439.1,51.3L439.1,51.3z M439.1,15.3c-35.8,0-60-28-60-64.6s24.2-64.6,60-64.6c35.8,0,60,28,60,64.6
	S474.8,15.3,439.1,15.3L439.1,15.3z"/>
<path fill="#FFFFFF" d="M439.1,281.2c56.5,0,101.5-42.7,101.5-100.7c0-58-45-100.7-101.5-100.7c-56.5,0-101.5,42.7-101.5,100.7
	C337.5,238.5,382.5,281.2,439.1,281.2L439.1,281.2z M439.1,245.2c-35.8,0-60-28-60-64.6c0-36.6,24.2-64.6,60-64.6
	c35.8,0,60,28,60,64.6C499.1,217.2,474.8,245.2,439.1,245.2L439.1,245.2z"/>
<path fill="#FFFFFF" d="M527.3,101.3h12.1l11.1-18.9c3.3-5.8,5.6-10.2,5.6-16c0-8.4-7.1-14.7-15.2-14.7C533,51.6,526,58,526,66.5
	c0,6.5,3.9,11.5,8.4,13.6L527.3,101.3L527.3,101.3z"/>
<path fill="#FFFFFF" d="M311.5-54.2c0-0.3,0-0.4,0-0.4v-90.7h-40.8v90.8v18.7c-0.4,16.2-2.6,26.9-7.5,33.6
	c-7.4,10.1-20.4,17.3-33.9,17.3c-11.5,0-28.6-3.8-44.6-33.9L150-0.5c20.9,43.8,55.4,55.6,79.9,55.5c35-0.1,65.6-18.1,76.9-52.8
	c2.9-9,4.2-20.3,4.8-30.4V-54.2L311.5-54.2z"/>
</svg>
